<svg xmlns="http://www.w3.org/2000/svg" viewBox="0 0 24 24" width="24" height="24" fill="currentColor">
    <path d="M13.4,10.6c-0.1-0.2-0.2-0.3-0.4-0.3c-0.1,0-0.1,0-0.1,0.1l-2.8,1c-0.1,0-0.1,0-0.1,0.1c-0.2,0-0.3-0.1-0.4-0.3
	c-0.1-0.2,0-0.3,0.1-0.5l0.1-0.1l0.6-0.2c0.9-0.3,1.7-0.6,2.5-0.9c0.2-0.1,0.3-0.2,0.3-0.3V9.2c0-0.1-0.1-0.1-0.1-0.1
	C13.1,8.9,13,8.9,12.9,9c-0.1,0-0.1,0-0.1,0.1l-3.1,1.1l-0.2,0.1c-0.2,0-0.3-0.1-0.4-0.3C9,9.7,9,9.5,9.2,9.4l0.1-0.1l0.5-0.1
	l2.1-0.7c0.2-0.1,0.3-0.1,0.3-0.3c0-0.1,0-0.2-0.1-0.3c-0.1-0.1-0.2-0.1-0.3-0.1c-0.1,0-0.1,0-0.1,0.1L10.6,8
	C9.5,8.4,8.5,8.7,7.4,9.1L7.3,9.2C7.2,9.2,7.2,9.1,7.1,9C7,8.9,7,8.8,7.2,8.7c0.1-0.1,0.1-0.3,0.3-0.3C7.6,8.2,7.7,8,7.8,7.7
	C7.9,7.6,8,7.4,7.9,7.3C7.8,7,7.7,6.9,7.5,6.9c-0.1,0-0.2,0-0.3,0.1C7.1,7,7.1,7.1,7,7.2C6.8,7.4,6.6,7.6,6.5,7.9
	C6.1,8.4,5.7,9,5.2,9.5c-0.6,0.8-0.8,1.7-0.6,2.6c0,0.1,0.1,0.4,0.1,0.6C4.8,12.9,5,13.2,5,13.2c0.2,0.5,0.5,0.7,0.8,1
	c0.3,0.3,0.7,0.5,1.2,0.5h0.3c0.2,0,0.4-0.1,0.6-0.1L9.6,14l2.9-1c0.1-0.1,0.3-0.1,0.3-0.3c0-0.1,0-0.2-0.1-0.3
	c-0.1-0.1-0.3-0.1-0.5-0.1L10.2,13c-0.1,0-0.1,0-0.1,0.1c-0.2,0.1-0.3-0.1-0.4-0.3c-0.1-0.2,0-0.4,0.2-0.5c0.1-0.1,0.1-0.1,0.2-0.1
	l3.1-1.1h0.1c0.1,0,0.1,0,0.1-0.1C13.4,11,13.5,10.8,13.4,10.6z M5.8,7.8L6.4,7c0.1-0.1,0.2-0.2,0.3-0.3c0.2-0.1,0.4-0.2,0.7-0.2
	c0.5,0,0.9,0.3,1.1,0.9c0.1,0.3,0,0.7-0.1,0.9l1.3-0.5L9.8,7l0.8-2.8c0.1-0.1,0-0.3-0.1-0.4c-0.1-0.1-0.2-0.1-0.3-0.1S10,3.8,9.9,4
	L9.2,6.2c0,0.1,0,0.1-0.1,0.1C9.1,6.6,8.9,6.6,8.8,6.6C8.6,6.6,8.4,6.4,8.4,6.2c0-0.1,0-0.1,0.1-0.2l0.9-3.1V2.8
	c0-0.1,0-0.1,0.1-0.1c0-0.2-0.1-0.3-0.3-0.4s-0.3,0-0.5,0.2c0.1,0,0,0.1,0,0.1L7.9,5.5c0,0.1,0,0.1-0.1,0.1C7.8,5.8,7.6,5.8,7.4,5.8
	c-0.2,0-0.3-0.2-0.3-0.4V5.2l0.2-0.7L8.2,2c0.1-0.3,0.1-0.4-0.1-0.5c0,0-0.1-0.1-0.1-0.1H7.8C7.6,1.4,7.6,1.5,7.5,1.6
	c0,0.1,0,0.1-0.1,0.1L6.5,5L6.4,5.2C6.4,5.4,6.2,5.4,6,5.4C5.8,5.3,5.7,5.1,5.8,4.9V4.8l0.1-0.3l0.7-2.3c0.1-0.2,0-0.3-0.1-0.4
	S6.3,1.6,6.2,1.6C6.1,1.6,6,1.7,5.9,1.9C5.9,2,5.9,2,5.8,2L5.5,3.1L4.6,6.3C4.5,6.5,4.4,6.6,4.3,6.6c-0.1,0-0.2-0.1-0.2-0.3
	C4,6.2,4,6,4,5.9C3.8,5.6,3.8,5.4,3.7,5.2C3.6,5,3.6,4.9,3.4,4.8L3.2,4.8C3,4.8,2.8,5,2.8,5.3c0,0.1,0,0.1,0.1,0.3
	C2.9,5.8,3,6.2,3.1,6.4c0.2,0.7,0.4,1.3,0.5,2C3.8,9,4,9.4,4.4,9.8c0.1-0.1,0.1-0.3,0.3-0.4C4.6,9.4,5.8,7.8,5.8,7.8z"/>
</svg>
