<svg xmlns="http://www.w3.org/2000/svg" width="24" height="24" viewBox="0 0 24 24" fill="currentColor">
    <path d="M10.9,6.7C9.4,7,8.5,7.4,8.5,7.4v6c0,0,1-0.5,2.4-0.7c1.7-0.3,2.4-0.2,2.4-0.2V6.6C13.2,6.6,12.5,6.5,10.9,6.7z M12.3,9
	L9.4,9.7V8.5l2.9-0.7C12.3,7.8,12.3,9,12.3,9z M2.8,6.6v6c0,0,0.7-0.1,2.4,0.2c1.5,0.2,2.3,0.7,2.3,0.7V7.4c0,0-1-0.5-2.4-0.7
	C3.6,6.5,2.8,6.6,2.8,6.6z M3.8,7.8l2.9,0.7v1.1L3.8,9C3.8,9,3.8,7.8,3.8,7.8z M9.9,6.2c0.3-0.4,0.4-0.8,0.4-1.3
	c0-1.3-1-2.4-2.3-2.4S5.7,3.6,5.7,4.9c0,0.5,0.1,0.9,0.4,1.3c0,0,1.2-0.1,2-0.1C8,6.2,9.9,6.2,9.9,6.2z"/>
</svg>
