<svg xmlns="http://www.w3.org/2000/svg" width="16" height="16" fill="currentColor" viewBox="0 0 16 16">
    <path d="M16.7,7.27a.81.81,0,0,1-.9.7c-.1,0-.2,0-.2-.1l-4.9-1.8c-.5-.2-.6-.6-.1-.8l6.2-3.6c.5-.3.8-.1.7.5l-.8,5.1Z"></path>
    <path d="M8.1,13.77a5.92,5.92,0,0,1-2.9-.7A5.77,5.77,0,0,1,2,7.87a6.21,6.21,0,0,1,6.3-6A6.15,6.15,0,0,1,13.9,6l.1-.1L16.1,7A8.1,8.1,0,0,0,7,.07,8.24,8.24,0,0,0,0,8a8.06,8.06,0,0,0,4.3,7,10.21,10.21,0,0,0,3.8,1,8.24,8.24,0,0,0,6.6-3.3l-1.8-.9a7,7,0,0,1-4.8,2Z"></path>
</svg>
