<svg xmlns="http://www.w3.org/2000/svg" width="16" height="16" fill="currentColor" viewBox="0 0 16 16">
    <path d="M1,8.1c.2,8.9,13.1,9.3,14,.5C15.5-1.1,1.4-1.7,1,7.9M16,8.1c-.4,10.3-15.2,10.6-16,.3C-.1-2.5,15.4-3,16,7.9M5.9,4.7c0-2.2,3.9-2.3,4.1-.2,0,.4-.6.7-.8.4-.3-.3-.6-1-1.2-.9-.6,0-1.1.6-.6,1.1.2.2,1,.7,1.2.8.7.5,1.4.8,1.8,1.5.4.8,0,1.9-.8,2.3,1.1.9.7,2.6-.6,3.1-1.2.5-3.1-.2-3.1-1.7,0-.4.4-.8.8-.6.3.1.4.5.5.7.2.7,1.1.9,1.6.5.4-.4.2-1-.3-1.3-.9-.8-2.9-1.4-2.9-3,0-.6.3-1.1,1-1.5-.4-.4-.6-.8-.6-1.2ZM7.1,6.5c-1.6,1.1.7,2,1.6,2.6,1.6-1.2-.8-2-1.6-2.6Z"/>
</svg>