<svg xmlns="http://www.w3.org/2000/svg" width="16" height="16" viewBox="0 0 20 20">
	<path fill="#fff" d="M2.5,11.1c-0.6-0.6-0.6-1.5,0-2.1l6.5-6.5c0.6-0.6,1.5-0.6,2.1,0l6.5,6.5c0.6,0.6,0.6,1.5,0,2.1l-6.5,6.5
	c-0.6,0.6-1.5,0.6-2.1,0L2.5,11.1z"/>
	<path fill="#900" d="M9.5,3c0.3-0.3,0.8-0.3,1.1,0L17,9.5c0.3,0.3,0.3,0.8,0,1.1L10.5,17c-0.3,0.3-0.8,0.3-1.1,0L3,10.5
	c-0.3-0.3-0.3-0.8,0-1.1L9.5,3z M0.6,8.7c-0.8,0.8-0.8,1.9,0,2.7l8.1,8.1c0.8,0.8,1.9,0.8,2.7,0l8.1-8.1c0.8-0.8,0.8-1.9,0-2.7
	l-8.1-8.1c-0.8-0.8-1.9-0.8-2.7,0L0.6,8.7z"/>
</svg>
